<?xml version="1.0" standalone="no"?>
<!DOCTYPE svg PUBLIC "-//W3C//DTD SVG 20010904//EN"
 "http://www.w3.org/TR/2001/REC-SVG-20010904/DTD/svg10.dtd">
<svg version="1.0" xmlns="http://www.w3.org/2000/svg"
 width="240.000000pt" height="240.000000pt" viewBox="0 0 240.000000 240.000000"
 preserveAspectRatio="xMidYMid meet">
<metadata>
Created by potrace 1.11, written by Peter Selinger 2001-2013
</metadata>
<g transform="translate(0.000000,240.000000) scale(0.100000,-0.100000)"
fill="#000000" stroke="none">
<path d="M1314 1790 c-12 -5 -30 -21 -41 -37 -20 -28 -67 -143 -58 -143 2 0 1
-10 -4 -23 -5 -13 -12 -48 -16 -78 -4 -30 -9 -63 -10 -74 -7 -44 -15 -124 -20
-195 -3 -41 -8 -95 -10 -120 -2 -25 -7 -74 -10 -110 -4 -36 -8 -76 -10 -90 -2
-14 -6 -45 -10 -70 -11 -76 -25 -110 -45 -110 -26 0 -52 85 -90 292 -35 189
-58 275 -89 336 -21 41 -63 72 -98 72 -33 0 -82 -39 -104 -82 -29 -57 -35 -77
-73 -268 -39 -190 -49 -220 -73 -220 -20 0 -27 14 -72 137 -60 168 -100 192
-308 193 -150 0 -173 -7 -173 -50 0 -43 24 -50 167 -50 l135 0 32 -32 c22 -23
43 -63 65 -126 49 -142 90 -192 158 -192 84 0 125 82 173 345 29 162 46 215
71 215 12 0 23 -10 30 -27 12 -31 47 -185 53 -235 9 -68 48 -241 67 -294 36
-106 81 -154 144 -154 49 0 103 86 120 189 3 19 7 37 9 40 2 3 7 33 10 66 4
33 9 71 11 85 2 14 6 66 10 115 3 50 8 110 10 135 2 25 7 72 10 105 19 206 49
332 82 342 24 8 64 -111 78 -234 3 -27 7 -58 9 -69 2 -11 7 -51 11 -89 6 -66
18 -158 31 -235 19 -112 75 -200 129 -200 91 0 136 66 191 280 44 174 55 179
114 53 45 -96 87 -148 137 -169 49 -21 306 -20 327 2 20 20 20 48 0 68 -12 13
-41 16 -148 16 -157 0 -169 6 -211 98 -57 122 -71 145 -98 168 -34 28 -91 32
-125 8 -34 -24 -60 -84 -92 -214 -42 -169 -68 -215 -97 -177 -11 13 -30 87
-38 147 -8 60 -24 193 -30 245 -13 110 -47 269 -69 319 -38 86 -98 122 -162
96z"/>
</g>
</svg>
